<?xml version="1.0" standalone="no"?>
<!DOCTYPE svg PUBLIC "-//W3C//DTD SVG 20010904//EN"
 "http://www.w3.org/TR/2001/REC-SVG-20010904/DTD/svg10.dtd">
<svg version="1.0" xmlns="http://www.w3.org/2000/svg"
 width="180.000000pt" height="180.000000pt" viewBox="0 0 180.000000 180.000000"
 preserveAspectRatio="xMidYMid meet">

<g transform="translate(0.000000,180.000000) scale(0.100000,-0.100000)"
fill="#000000" stroke="none">
<path d="M865 1783 c-16 -9 -129 -72 -250 -141 -121 -68 -276 -156 -345 -195
-69 -39 -133 -77 -142 -85 -17 -14 -18 -49 -18 -462 0 -413 1 -448 18 -462 9
-8 52 -34 94 -57 l78 -42 10 28 c6 15 12 33 15 40 2 7 -29 30 -71 53 l-74 41
0 399 0 399 50 28 c27 15 50 31 50 36 0 16 42 47 64 47 28 0 75 24 342 176
110 63 207 114 215 114 8 0 100 -49 204 -109 151 -86 194 -107 208 -99 10 5
31 6 47 3 39 -8 116 -69 135 -105 8 -16 39 -42 70 -60 l55 -31 0 -399 0 -399
-102 -58 c-87 -48 -106 -64 -123 -97 -25 -51 -68 -76 -138 -80 -48 -2 -74 -13
-200 -84 -79 -45 -150 -82 -158 -82 -7 0 -105 52 -217 116 l-203 116 -44 -23
c-24 -13 -43 -24 -42 -25 6 -5 447 -254 475 -268 38 -20 10 -33 317 142 121
68 276 156 345 195 69 39 133 77 143 85 16 14 17 49 17 462 0 413 -1 448 -17
462 -10 8 -110 67 -223 130 -113 64 -281 159 -374 212 -94 53 -172 96 -175 96
-4 -1 -19 -8 -36 -17z"/>
<path d="M590 1424 l0 -64 -141 0 c-108 0 -140 -3 -137 -12 3 -10 43 -14 141
-16 l137 -3 0 -41 0 -41 60 6 c100 11 110 15 110 48 l0 29 125 0 c121 0 125
-1 125 -21 0 -21 -2 -22 -105 -15 l-105 7 0 -50 0 -51 -171 0 c-157 0 -170 -1
-167 -17 3 -16 20 -18 171 -21 l167 -2 0 -40 0 -40 -245 0 c-211 0 -245 -2
-245 -15 0 -13 34 -15 245 -15 l245 0 0 -45 0 -45 -176 0 c-136 0 -175 -3
-172 -12 4 -10 50 -14 176 -16 l172 -2 0 -140 0 -140 -110 0 -110 0 0 35 c0
30 3 35 24 35 13 0 26 -6 29 -14 4 -10 17 -11 56 -5 28 4 55 11 61 14 5 3 10
31 10 62 0 37 5 62 16 74 14 16 11 18 -61 24 -47 5 -80 4 -84 -2 -4 -6 -33 -7
-76 -2 -38 4 -82 8 -97 8 l-28 1 0 -144 c0 -172 -18 -276 -60 -353 -16 -31
-28 -58 -26 -60 6 -7 67 27 108 59 21 16 52 51 69 79 28 43 37 49 66 49 l33 0
0 -86 0 -87 56 6 c75 8 84 17 84 87 0 38 5 62 15 70 12 10 6 19 -43 55 l-57
43 -30 -29 c-18 -17 -42 -29 -57 -29 -25 0 -26 1 -16 40 l10 40 109 0 108 0 3
-152 3 -153 50 3 c27 2 64 10 82 17 l33 14 0 136 0 136 113 -3 112 -3 3 -37
c3 -35 1 -38 -23 -38 -14 0 -52 11 -85 25 -33 14 -64 25 -70 25 -6 0 -10 -46
-10 -125 l0 -125 33 1 c17 0 48 6 67 13 35 13 35 13 40 82 4 61 7 69 25 69 18
0 20 -8 23 -99 l3 -98 52 6 c29 4 63 13 77 19 l25 12 3 240 c2 232 3 241 24
256 l21 17 -29 5 c-16 3 -61 9 -101 12 l-72 7 -3 -64 c-3 -55 -5 -63 -23 -63
-16 0 -21 8 -23 43 -2 32 1 47 14 56 15 11 9 14 -37 19 -30 4 -69 7 -86 7
l-33 0 0 -89 c0 -50 3 -92 8 -94 4 -3 30 -1 57 4 28 5 67 12 88 15 l37 7 0
-37 0 -36 -115 0 -115 0 0 140 0 140 80 0 c64 0 80 -3 80 -15 0 -18 51 -20
116 -4 l44 11 0 64 0 64 100 0 c55 0 100 4 100 9 0 10 -57 62 -97 88 -25 17
-26 17 -64 -28 l-38 -44 -1 31 c0 21 7 36 20 45 20 13 18 16 -48 66 l-70 51
-33 -34 c-32 -33 -35 -34 -111 -34 l-78 0 0 30 c0 17 3 30 8 30 4 1 43 2 87 4
96 4 115 11 115 42 0 23 0 23 142 26 94 2 143 7 145 14 5 15 -126 119 -136
108 -4 -5 -22 -28 -40 -51 -29 -38 -38 -43 -72 -43 -39 0 -39 0 -39 39 0 31 4
41 20 46 38 12 20 23 -47 29 -38 4 -85 9 -105 11 l-38 5 0 -65 0 -66 -122 3
-123 3 -3 37 c-3 29 1 38 17 43 39 12 21 23 -46 29 -38 4 -85 8 -105 10 l-38
4 0 -64z m540 -304 l0 -40 -80 0 -80 0 0 40 0 40 80 0 80 0 0 -40z m0 -115 l0
-45 -80 0 -80 0 0 45 0 45 80 0 80 0 0 -45z m-502 -202 c-3 -40 -6 -48 -23
-48 -28 0 -35 63 -9 82 29 21 35 15 32 -34z"/>
</g>
</svg>
